<mxfile host="Electron" modified="2023-11-19T20:08:53.945Z" agent="Mozilla/5.0 (Windows NT 10.0; Win64; x64) AppleWebKit/537.36 (KHTML, like Gecko) draw.io/22.0.2 Chrome/114.0.5735.289 Electron/25.8.4 Safari/537.36" etag="2ctnppb4jRnL9Or36xrQ" version="22.0.2" type="device">
  <diagram name="Page-1" id="KmmxNW5He_TuJLySTWlA">
    <mxGraphModel dx="1098" dy="820" grid="1" gridSize="10" guides="1" tooltips="1" connect="1" arrows="1" fold="1" page="1" pageScale="1" pageWidth="827" pageHeight="1169" math="0" shadow="0">
      <root>
        <mxCell id="0" />
        <mxCell id="1" parent="0" />
        <mxCell id="5ecGjO3xbDpx9xs_7Vdy-1" value="&lt;h1 style=&quot;font-size: 26px;&quot;&gt;&lt;font style=&quot;font-size: 26px;&quot;&gt;Contrato UC08: Listar Medicamentos&amp;nbsp;&lt;/font&gt;&lt;/h1&gt;&lt;p style=&quot;font-size: 26px;&quot;&gt;Operação: listarMedicamentos()&lt;/p&gt;&lt;p style=&quot;font-size: 26px;&quot;&gt;Referencias:Use Cases: Listar Medicamentos&lt;/p&gt;&lt;p style=&quot;font-size: 26px;&quot;&gt;Pré-Condições: O utilizador deve ser do tipo indústria.&lt;/p&gt;&lt;p style=&quot;font-size: 26px;&quot;&gt;Pós-Condições: O Sistema retorna a lista dos 10 primeiros medicamentos ordenados alfabeticamente. Cada medicamento contém o seu nome, forma, dosagem e substâncias.&lt;/p&gt;&lt;p style=&quot;font-size: 26px;&quot;&gt;&lt;br&gt;&lt;/p&gt;&lt;p style=&quot;font-size: 26px;&quot;&gt;&lt;span style=&quot;white-space: pre;&quot;&gt;&#x9;&lt;span style=&quot;white-space: pre;&quot;&gt;&#x9;&lt;/span&gt;&lt;span style=&quot;white-space: pre;&quot;&gt;&#x9;&lt;/span&gt; &lt;/span&gt;&amp;nbsp;&amp;nbsp;&lt;br&gt;&lt;/p&gt;&lt;p style=&quot;font-size: 26px;&quot;&gt;&lt;br&gt;&lt;/p&gt;" style="text;html=1;strokeColor=none;fillColor=none;spacing=5;spacingTop=-20;whiteSpace=wrap;overflow=hidden;rounded=0;" vertex="1" parent="1">
          <mxGeometry x="30" y="30" width="640" height="370" as="geometry" />
        </mxCell>
        <mxCell id="5ecGjO3xbDpx9xs_7Vdy-2" value="&lt;h1 style=&quot;font-size: 26px;&quot;&gt;&lt;font style=&quot;font-size: 26px;&quot;&gt;Contrato UC08: Listar Mais Medicamentos&lt;/font&gt;&lt;/h1&gt;&lt;p style=&quot;font-size: 26px;&quot;&gt;Operação: listarMaisMedicamentos()&lt;/p&gt;&lt;p style=&quot;font-size: 26px;&quot;&gt;Referencias:Use Cases: Listar Medicamentos&lt;/p&gt;&lt;p style=&quot;font-size: 26px;&quot;&gt;Pré-Condições: O utilizador deve ser do tipo indústria.&lt;/p&gt;&lt;p style=&quot;font-size: 26px;&quot;&gt;Pós-Condições: O Sistema retorna a lista dos 10 primeiros medicamentos ordenados alfabeticamente. Cada medicamento contém o seu nome, forma, dosagem e substâncias.&lt;/p&gt;&lt;p style=&quot;font-size: 26px;&quot;&gt;&lt;br&gt;&lt;/p&gt;&lt;p style=&quot;font-size: 26px;&quot;&gt;&lt;span style=&quot;white-space: pre;&quot;&gt;&#x9;&lt;span style=&quot;white-space: pre;&quot;&gt;&#x9;&lt;/span&gt;&lt;span style=&quot;white-space: pre;&quot;&gt;&#x9;&lt;/span&gt; &lt;/span&gt;&amp;nbsp;&amp;nbsp;&lt;br&gt;&lt;/p&gt;&lt;p style=&quot;font-size: 26px;&quot;&gt;&lt;br&gt;&lt;/p&gt;" style="text;html=1;strokeColor=none;fillColor=none;spacing=5;spacingTop=-20;whiteSpace=wrap;overflow=hidden;rounded=0;" vertex="1" parent="1">
          <mxGeometry x="40" y="430" width="640" height="370" as="geometry" />
        </mxCell>
      </root>
    </mxGraphModel>
  </diagram>
</mxfile>
